HIERARCHY
ROOT pelvis
{
  OFFSET 0 100 0
  CHANNELS 6 Xposition Yposition Zposition Zrotation Xrotation Yrotation
  JOINT pelvis_right_femur
  {
    OFFSET -10.78128 -3.44521 -0.5502486
    CHANNELS 3 Zrotation Xrotation Yrotation
    JOINT right_femur_tibia
    {
      OFFSET -0.8047443 -44.0398 -0.1307829
      CHANNELS 3 Zrotation Xrotation Yrotation
      JOINT right_tibia_foot
      {
        OFFSET 3.006224 -47.83518 -5
        CHANNELS 3 Zrotation Xrotation Yrotation
        End Site
        {
          OFFSET 0 -5 15
        }
      }
    }
  }
  JOINT pelvis_left_femur
  {
    OFFSET 10.78128 -3.44521 -0.5502486
    CHANNELS 3 Zrotation Xrotation Yrotation
    JOINT left_femur_tibia
    {
      OFFSET 0.8047443 -44.0398 -0.1307829
      CHANNELS 3 Zrotation Xrotation Yrotation
      JOINT left_tibia_foot
      {
        OFFSET -4.370144 -48.10324 -4.275266
        CHANNELS 3 Zrotation Xrotation Yrotation
        End Site
        {
          OFFSET 0 -5 15
        }
      }
    }
  }
  JOINT pelvis_spine1
  {
    OFFSET 0 6.468898 -3.129235
    CHANNELS 3 Zrotation Xrotation Yrotation
    JOINT spine1
    {
      OFFSET 0 23.15396 4.99043
      CHANNELS 3 Zrotation Xrotation Yrotation
      JOINT spine2
      {
        OFFSET 0 20.79997 -5.064912
        CHANNELS 3 Zrotation Xrotation Yrotation
        JOINT neck
        {
          OFFSET 0 14.38658 9.616178
          CHANNELS 3 Zrotation Xrotation Yrotation
          End Site
          {
            OFFSET 0 20 0
          }
        }
      }
      JOINT right_manubrium
      {
        OFFSET -5.722621 16.35077 3.967754
        CHANNELS 3 Zrotation Xrotation Yrotation
        JOINT right_clavicle
        {
          OFFSET -13.16364 1.694482 -4.693211
          CHANNELS 3 Zrotation Xrotation Yrotation
          JOINT right_humerus
          {
            OFFSET -28.5034 -0.3100689 -2.792744
            CHANNELS 3 Zrotation Xrotation Yrotation
            JOINT right_radius
            {
              OFFSET -25.15693 0.02248979 -1.271978
              CHANNELS 3 Zrotation Xrotation Yrotation
              End Site
              {
                OFFSET -15 0 0
              }
            }
          }
        }
      }
      JOINT left_manubrium
      {
        OFFSET 5.722621 16.35077 3.967754
        CHANNELS 3 Zrotation Xrotation Yrotation
        JOINT left_clavicle
        {
          OFFSET 13.16364 1.694482 -4.693211
          CHANNELS 3 Zrotation Xrotation Yrotation
          JOINT left_humerus
          {
            OFFSET 29.39168 -1.063119 -2.237045
            CHANNELS 3 Zrotation Xrotation Yrotation
            JOINT left_radius
            {
              OFFSET 24.59957 -0.9528479 0.9047498
              CHANNELS 3 Zrotation Xrotation Yrotation
              End Site
              {
                OFFSET 15 -0 -0
              }
            }
          }
        }
      }
    }
  }
}
MOTION
Frames: 7
Frame Time: 0.0416666666667
462.5011 111.9813 2985.566 1.391818 -5.401989 13.03312 4.898761 -16.61774 3.876898 -0 18.05562 -0 -3.25803 -3.162888 -7.09491 -3.786072 8.21565 -6.888216 -0 49.90827 -0 -7.179117 -10.44644 12.59268 -1.094809 0.4526991 3.669517 1.858896 10.14919 -7.561796 1.869466 22.41544 5.483768 2.515525 -18.4683 6.891613 2.912809 -13.61137 11.03882 90.158 27.03688 -22.14312 -0 0 6.453658 -17.37957 11.71081 7.957146 4.971608 -21.49192 -4.230914 -83.7827 22.66952 7.85006 0 0 -23.97897 3.432545 7.999268 9.283544
463.5498 113.2064 2991.999 1.744647 -6.758047 12.72219 5.300836 -10.86813 4.661281 -0 19.54629 -0 -3.068307 -4.508471 -7.255732 -3.208549 4.317338 -6.463386 -0 56.83009 -0 -8.432624 -8.097736 13.40951 -0.7195353 0.5840932 4.315447 1.431059 10.37039 -6.808511 2.196057 22.7997 4.936223 2.31905 -17.66104 6.669543 2.552559 -14.01526 11.11051 89.63477 25.6563 -20.74659 -0 0 7.797156 -17.70154 11.5712 7.869848 4.385836 -20.50546 -4.286841 -85.18407 23.48114 9.819293 0 0 -21.63187 1.947415 7.949136 10.97547
464.6393 114.5603 2998.445 2.022254 -8.006685 12.20611 5.505382 -5.014574 5.193809 -0 19.85263 -0 -2.613406 -6.171255 -7.132575 -2.378889 -0.2688536 -5.865165 -0 59.87981 -0 -9.457486 -6.478779 14.35973 -0.332969 0.7282013 5.050438 0.9200258 10.59476 -5.970497 2.506978 23.01136 4.393072 2.094996 -16.88877 6.448987 1.935744 -14.97501 11.19398 88.87465 23.79219 -18.8344 -0 0 10.09102 -18.49328 11.4476 8.191172 3.9666 -19.5304 -4.40358 -86.82943 24.06875 12.32949 0 0 -19.3711 0.3711444 7.867547 12.72336
465.8519 115.8134 3004.895 2.035843 -8.457687 11.51435 5.534026 0.1783461 5.517431 -0 18.98334 -0 -1.895357 -7.79366 -6.43629 -1.374068 -5.668929 -5.056175 -0 58.394 -0 -9.770228 -5.597303 15.1849 -0.07854261 0.8176311 5.912201 0.4822616 10.84977 -5.251564 2.600631 22.80125 4.103384 1.993009 -16.5847 6.22271 1.538739 -16.43509 11.3866 87.61326 22.6396 -16.55126 -0 0 13.13001 -19.59065 11.50432 9.080203 3.76512 -18.74623 -4.389052 -88.51382 23.98381 15.37074 0 0 -17.53924 -0.7160807 7.516214 13.95584
467.3024 116.8043 3011.358 1.655196 -7.286378 10.73936 5.356576 4.324648 5.670927 -0 17.10268 -0 -0.9967564 -9.121354 -4.846246 -0.3105108 -12.27249 -4.009742 -0 52.40192 -0 -8.838776 -5.17735 15.69125 -0.1662157 0.7497112 6.973406 0.3027965 11.09312 -4.850577 2.256877 21.97137 4.333444 2.175635 -17.20749 5.981899 1.97718 -18.19307 11.78983 85.28376 23.79802 -13.85154 -0 0 16.51055 -20.70291 11.87021 10.6673 3.80786 -18.27397 -3.908512 -89.94383 22.80459 18.82279 0 0 -16.33716 -0.6015703 6.652663 13.96833
469.0327 117.331 3017.829 1.09083 -4.838057 10.04653 4.862771 7.730409 5.442378 -0 14.67597 -0 -0.4307199 -10.28718 -2.646729 0.6057872 -19.19986 -3.03709 -0 42.89334 -0 -6.868906 -5.093285 16.06711 -0.6605523 0.5369929 7.965198 0.3871229 11.03374 -4.687585 1.609673 20.9663 4.955447 2.538377 -18.52339 5.820768 3.022569 -19.79369 12.19655 82.05589 27.01471 -10.61021 -0 0 19.43165 -21.52416 12.21167 12.63871 4.067657 -17.96685 -2.909684 -90.95458 21.11045 21.98232 0 0 -15.34241 0.5959457 5.685742 12.83302
470.9213 117.1997 3024.241 0.8612882 -3.133532 9.531194 4.011913 11.21079 4.61897 -0 13.32496 -0 -0.7630523 -11.40373 -0.9199945 0.940071 -23.99083 -2.868857 -0 32.63237 -0 -5.14942 -5.50804 16.87221 -1.314221 0.3849884 8.329584 0.4196347 10.37395 -4.325086 1.207483 20.82407 5.405091 2.704494 -19.39946 5.896125 3.368695 -20.72221 12.08569 79.54606 29.24422 -7.340418 -0 0 21.05912 -21.96608 11.77675 14.13676 4.389135 -17.40104 -1.939009 -91.8093 20.51738 23.8778 0 0 -13.58437 1.536033 5.644608 11.84682
